<?xml version="1.0" encoding="UTF-8"?>
<svg id="_Слой_1" data-name="Слой_1" xmlns="http://www.w3.org/2000/svg" version="1.1" viewBox="0 0 1247 1423">
  <!-- Generator: Adobe Illustrator 29.0.1, SVG Export Plug-In . SVG Version: 2.1.0 Build 192)  -->
  <defs>
    <style>
      .st0 {
        fill: #ff8500;
      }

      .st1 {
        fill: #49bd4b;
      }

      .st2, .st3 {
        fill: #fff;
      }

      .st4, .st5, .st6, .st7 {
        fill: none;
      }

      .st4, .st5, .st8, .st9 {
        stroke-width: 5px;
      }

      .st4, .st5, .st8, .st9, .st7, .st10, .st11, .st3 {
        stroke-linecap: round;
        stroke-linejoin: round;
      }

      .st4, .st8, .st3 {
        stroke: #000;
      }

      .st5, .st9, .st7, .st10, .st11 {
        stroke: #1f1f1f;
      }

      .st12 {
        fill: #9ff1d8;
      }

      .st13, .st11 {
        fill: #fffae4;
      }

      .st14, .st10 {
        fill: #ea9000;
      }

      .st15 {
        fill: #738e73;
      }

      .st16, .st8, .st9 {
        fill: #1f1f1f;
      }

      .st17 {
        fill: #ecddaa;
      }

      .st18 {
        fill: #333;
      }

      .st19 {
        fill: #632b0f;
      }

      .st20 {
        fill: #f5948d;
      }

      .st21 {
        fill: #f9c032;
      }

      .st7, .st10 {
        stroke-width: 11px;
      }

      .st11 {
        stroke-width: 7px;
      }

      .st3 {
        stroke-width: 6px;
      }

      .st22 {
        fill: #ccddcd;
      }

      .st23 {
        fill: #151615;
      }

      .st24 {
        fill: #fbc9c5;
      }
    </style>
  </defs>
  <g>
    <g>
      <path class="st6" d="M375.43,1078.27c-1.24,1.82-2.61,3.63-4.14,5.42-8.18,9.54-18.88,15.42-29.19,19.04.19.32.38.65.57.97,5.33-2.23,11.15-5.25,17.41-9.33,6.79-4.43,11.75-10.03,15.35-16.1Z"/>
      <path class="st6" d="M581.36,1144.41c.65-.57,1.29-1.15,1.93-1.73.91-7.29,1.23-15.47.53-24.43.04,9.1-.98,18.02-2.46,26.15Z"/>
      <path class="st6" d="M457.71,1148.31c16.37-38.9,12.17-60.93-7-84.74,10,15.48,15.35,37.22,15.35,37.22,0,0,4.32,43.11-25.23,69.67-4.15,3.73-8.47,6.85-12.82,9.49.04.01.09.03.13.04,12.27-7,23.43-17.11,29.57-31.69Z"/>
      <path class="st6" d="M547.71,1046.62c8.36,6.68,17.1,15.87,24.99,28.52-5.86-11.69-14.04-21.04-24.99-28.52Z"/>
      <path class="st1" d="M324.44,1148.91c-3.99-7.67-9.81-19.36-15.34-32.39,2.33,7.5,6.93,19.45,15.34,32.39Z"/>
      <path class="st1" d="M633.13,1113.7c8.86-12.72,14-23.64,16.88-32.63-3.81,10.51-9.88,21.79-16.88,32.63Z"/>
      <path class="st16" d="M475.48,1222.74c19.45-1.79,37.59-8.03,52.72-15.16-14.36,6.1-31.97,11.49-53.97,15.26.42-.03.83-.06,1.25-.1Z"/>
      <path class="st16" d="M372.22,1195.69s3.77,2.35,10.31,5.68c-3.14-1.88-6.18-3.8-9.1-5.75-.78.05-1.2.07-1.2.07Z"/>
      <path class="st16" d="M440.72,1052.27c3.68,3.86,7.01,7.6,9.99,11.3-2.94-4.54-6.27-8.55-9.99-11.3Z"/>
      <path class="st16" d="M511.01,1030.61c14.73,4.05,26.84,9.28,36.7,16.02-16.62-13.29-31.72-16.64-35.61-17.31-.91.77-1.3,1.24-1.09,1.3Z"/>
      <path class="st16" d="M572.71,1075.14c4.83,9.63,8.11,20.83,10.08,33.89.48,3.17.81,6.24,1.04,9.24-.07-14.74-2.92-29.96-11.07-43.04-.02-.03-.04-.06-.06-.09Z"/>
      <path class="st16" d="M242.81,1009.92c3.44,1.57,24.12,11.67,37.98,32.83,4.89,7.47,9.35,16.96,13.16,26.39-8.27-33.16-34.01-51.65-51.14-59.22Z"/>
      <path class="st16" d="M375.43,1078.27c17.03-25,7.95-52.11,7.95-52.11,0,0,5.55,29.39-7.95,52.11Z"/>
      <path class="st15" d="M651.88,1051.04s4.4,10.45-1.87,30.03c.82-2.26,1.54-4.49,2.14-6.67,8.67-31.69-21.07-54.2-21.07-54.2,0,0,0,0,0,0,15.58,13.82,20.8,30.84,20.8,30.84Z"/>
      <path class="st15" d="M570.59,1181.04c.69-.61,9.77-14.8,12.71-38.35-.64.58-1.28,1.16-1.93,1.73-3.83,20.93-10.77,36.62-10.77,36.62Z"/>
      <path class="st15" d="M242.81,1009.92c-.32-.15-.5-.23-.5-.23.17.07.34.15.5.23Z"/>
      <path class="st15" d="M424.74,1181.85c1.14-.59,2.28-1.21,3.4-1.85-.04-.01-.09-.03-.13-.04-1.09.66-2.18,1.29-3.27,1.89Z"/>
      <path class="st15" d="M382.53,1201.37c25.46,15.22,57.77,27.29,91.67,21.48.01,0,.02,0,.03,0-37.6,3.04-74.38-12.65-91.7-21.47Z"/>
      <path class="st15" d="M306.99,1108.46s13.55,4.49,35.67-4.76c-.19-.32-.38-.65-.57-.97-18.14,6.36-35.1,5.73-35.1,5.73Z"/>
      <path class="st15" d="M570.59,1181.04s-16.9,14.54-42.39,26.55c35.48-15.08,51.05-34.55,63.75-45,10.92-8.99,27.75-28.12,41.17-48.88-.65.93-1.29,1.86-1.98,2.81-30.59,42.2-61.53,65.38-60.56,64.52Z"/>
      <path class="st15" d="M373.39,1193.53c-23.49-12.41-38.93-29.22-48.94-44.62,3.04,5.83,5.02,9.35,5.02,9.35,0,0,17.19,19.54,43.96,37.37,3.53-.23,14.44-1.18,27.48-4.69-15.64,3.69-27.51,2.59-27.51,2.59Z"/>
      <path class="st15" d="M293.95,1069.14c.35,1.41.69,2.84.97,4.31,2.68,13.69,8.27,29.14,14.18,43.07-1.56-5.03-2.11-8.06-2.11-8.06,0,0-5.07-19.53-13.05-39.32Z"/>
      <path class="st21" d="M373.39,1193.53s11.88,1.1,27.51-2.59c7.57-2.04,15.86-4.95,23.83-9.08,1.09-.6,2.18-1.23,3.27-1.89-39.74-12.43-63.62-39.43-85.35-76.26-22.11,9.25-35.67,4.76-35.67,4.76,0,0,.54,3.03,2.11,8.06,5.53,13.02,11.35,24.71,15.34,32.39,10.02,15.4,25.45,32.21,48.94,44.62Z"/>
      <path class="st21" d="M651.88,1051.04s-5.22-17.02-20.8-30.84c25.87,23.08-1.73,81.22-47.78,122.49-2.94,23.55-12.02,37.74-12.71,38.35-.98.86,29.97-22.32,60.56-64.52.69-.95,1.33-1.88,1.98-2.81,7.01-10.84,13.08-22.12,16.88-32.63,6.27-19.58,1.87-30.03,1.87-30.03Z"/>
      <path class="st23" d="M570.59,1181.04s6.94-15.69,10.77-36.62c-28.42,24.89-63.53,43.22-97.39,43.18-21.7-.03-40.02-2.66-55.83-7.59-1.13.64-2.26,1.26-3.4,1.85-8.22,4.51-16.44,7.34-23.83,9.08-13.04,3.51-23.95,4.46-27.48,4.69,2.92,1.95,5.96,3.87,9.1,5.75,17.33,8.83,54.11,24.51,91.7,21.47,22.01-3.77,39.61-9.16,53.97-15.26,25.49-12.01,42.39-26.55,42.39-26.55Z"/>
      <path class="st15" d="M424.74,1181.85c-7.98,4.13-16.26,7.04-23.83,9.08,7.39-1.74,15.62-4.57,23.83-9.08Z"/>
      <path class="st23" d="M342.1,1102.73c-5.29-9.03-10.47-18.64-15.72-28.76-35.54-68.54-84.08-64.27-84.08-64.27,0,0,.18.08.5.23,17.13,7.57,42.87,26.06,51.14,59.22,7.98,19.79,13.05,39.32,13.05,39.32,0,0,16.96.63,35.1-5.73Z"/>
    </g>
    <g>
      <path class="st6" d="M440.76,1052.29s-.02-.02-.04-.03c0,0,.02.02.03.03,0,0,0,0,.01,0Z"/>
      <path class="st6" d="M572.71,1075.14c-5.86-11.69-14.04-21.04-24.99-28.52,8.36,6.68,17.1,15.87,24.99,28.52Z"/>
      <path class="st6" d="M385.76,1041.93c-.42-.33-.84-.65-1.26-.98-.01,10.51-1.7,24.91-9.07,37.33,8.79-12.89,10.62-26.34,10.33-36.35Z"/>
      <path class="st6" d="M547.71,1046.62c-4.9-3.92-9.67-6.97-14.06-9.34-.34.33-.67.65-1.01.98,5.52,2.49,10.53,5.27,15.07,8.36Z"/>
      <path class="st6" d="M511.01,1030.61c.62.17,1.24.35,1.85.52.65-.42,1.31-.83,1.96-1.25-1.17-.28-2.09-.46-2.72-.57-.91.77-1.3,1.24-1.09,1.3Z"/>
      <path class="st6" d="M572.71,1075.14c4.83,9.63,8.11,20.83,10.08,33.89.48,3.17.81,6.24,1.04,9.24-.07-14.74-2.92-29.96-11.07-43.04-.02-.03-.04-.06-.06-.09Z"/>
      <path class="st1" d="M440.72,1052.27s-14.72-1.83-28.83-9.7c-9-5.02-18.12-10.31-23.55-13.48,16.33,10.82,33.21,20.54,52.4,23.21,0,0-.02-.02-.03-.03Z"/>
      <path class="st21" d="M385.76,1041.93c.28,10.01-1.55,23.45-10.33,36.35-3.6,6.07-8.56,11.67-15.35,16.1-6.26,4.08-12.08,7.1-17.41,9.33,21.73,36.83,45.61,63.83,85.35,76.26,4.35-2.64,8.67-5.76,12.82-9.49,29.55-26.57,25.23-69.67,25.23-69.67,0,0-4.23-17.21-12.21-31.91-31.08-1.8-50.95-13.74-68.09-26.96Z"/>
      <path class="st1" d="M550.78,1009.81c34.37-14.32,61.82-1.62,68.18,1.79-6.12-3.4-13.27-6.1-21.59-7.58-37.67-6.66-78.02,19.1-85.26,25.28.63.11,1.55.29,2.72.57,11.03-7.06,22.44-14.43,35.96-20.06Z"/>
      <path class="st21" d="M631.08,1020.2c-3.14-2.79-6.71-5.44-10.74-7.8-48.79-12.28-67.18,5.93-86.69,24.88,4.39,2.38,9.16,5.43,14.06,9.34,10.95,7.48,19.13,16.83,24.99,28.52.02.03.04.06.06.09,8.14,13.08,11,28.29,11.07,43.04.7,8.96.38,17.14-.53,24.43,46.06-41.27,73.65-99.42,47.78-122.49Z"/>
      <path class="st16" d="M572.71,1075.14c-7.89-12.65-16.63-21.83-24.99-28.52-4.53-3.1-9.55-5.87-15.07-8.36-14.67,14.23-30.28,28.58-60.13,30.52-6.3.41-12.19.44-17.73.16,15.61,21.87,18.07,43.41,2.93,79.38-6.14,14.58-17.3,24.69-29.57,31.69,15.81,4.93,34.13,7.56,55.83,7.59,33.86.04,68.97-18.29,97.39-43.18,1.49-8.13,2.51-17.05,2.46-26.15-.23-3-.57-6.07-1.04-9.24-1.97-13.06-5.25-24.26-10.08-33.89Z"/>
      <path class="st16" d="M442,1052.46c-.83-.11-1.28-.19-1.28-.19.01,0,.02.02.04.03.41.06.83.11,1.25.16Z"/>
      <path class="st16" d="M511.01,1030.61c-.2-.06.19-.52,1.09-1.3-.63-.11-.97-.15-.97-.15,0,0-10.04,9.81-30.91,18.2-13.85,5.57-26.72,5.91-33.81,5.5,27.94,1.97,46.76-9.17,66.44-21.73-.61-.18-1.23-.35-1.85-.52Z"/>
      <path class="st16" d="M351.57,1005.18s-.66-.32-1.88-.84c1.16.61,2.31,1.24,3.47,1.89l-1.59-1.05Z"/>
      <path class="st16" d="M384.5,1040.95c-13.02-10.17-24.57-20.96-38.44-28.39-35.82-19.19-83.51-10.89-84.84-10.97,0,0,2.7-2.24,8.54-4.53-15.82,5.12-27.46,12.64-27.46,12.64,0,0,48.53-4.26,84.08,64.27,5.25,10.13,10.42,19.73,15.72,28.76,10.31-3.62,21.01-9.49,29.19-19.04,1.53-1.79,2.9-3.6,4.14-5.42,7.37-12.42,9.06-26.81,9.07-37.33Z"/>
      <path class="st22" d="M512.86,1031.13c7.23,2.07,13.8,4.43,19.78,7.13.34-.33.67-.65,1.01-.98-8.09-4.38-14.89-6.46-18.83-7.4-.66.42-1.31.84-1.96,1.25Z"/>
      <path class="st22" d="M620.36,1012.4s-.48-.3-1.39-.79c.47.26.93.52,1.38.79,0,0,0,0,.01,0Z"/>
      <path class="st22" d="M385.76,1041.93c-.26-9.4-2.39-15.76-2.39-15.76,0,0,1.14,6.06,1.13,14.78.42.33.84.65,1.26.98Z"/>
      <path class="st22" d="M450.72,1063.57c1.1,1.71,2.15,3.5,3.14,5.32.31.02.62.03.93.05-1.27-1.78-2.62-3.57-4.07-5.36Z"/>
      <path class="st22" d="M349.69,1004.34c-8.96-4.74-18.18-8.42-27.93-10.08-26.18-4.46-42.91-.77-52,2.79,8.68-2.81,18.62-4.9,28.59-4.62,23.61.65,45.02,9.17,51.33,11.91Z"/>
      <path class="st22" d="M388.35,1029.08c-11.79-7.81-23.3-16.17-35.19-22.85l30.22,19.93s1.89,1.12,4.97,2.92Z"/>
      <path class="st22" d="M446.42,1052.86c-.89-.06-1.77-.12-2.68-.21-.58-.06-1.16-.13-1.73-.2.97.13,2.48.29,4.41.4Z"/>
      <path class="st22" d="M450.72,1063.57c-2.93-4.53-6.25-8.52-9.96-11.27,0,0,0,0-.01,0,3.67,3.85,7,7.58,9.97,11.28Z"/>
      <path class="st22" d="M440.75,1052.29c-19.19-2.67-36.07-12.4-52.4-23.21-3.08-1.8-4.97-2.92-4.97-2.92,0,0,2.12,6.37,2.39,15.76,17.14,13.22,37.01,25.16,68.09,26.96-.99-1.82-2.03-3.61-3.14-5.32-2.97-3.69-6.3-7.43-9.97-11.28Z"/>
      <path class="st22" d="M550.78,1009.81c-13.52,5.63-24.93,13-35.96,20.06,3.94.94,10.74,3.02,18.83,7.4,19.51-18.95,37.89-37.16,86.69-24.88-.45-.27-.91-.53-1.38-.79-6.36-3.42-33.81-16.11-68.18-1.79Z"/>
      <path class="st18" d="M532.64,1038.26c-5.98-2.7-12.56-5.06-19.78-7.13-19.68,12.56-38.51,23.7-66.44,21.73-1.93-.11-3.44-.27-4.41-.4-.42-.05-.83-.11-1.25-.16,3.71,2.75,7.03,6.75,9.96,11.27,1.45,1.8,2.8,3.58,4.07,5.36,5.54.28,11.43.25,17.73-.16,29.85-1.93,45.46-16.29,60.13-30.52Z"/>
      <path class="st18" d="M261.22,1001.58c1.32.08,49.02-8.22,84.84,10.97,13.87,7.43,25.41,18.22,38.44,28.39.01-8.73-1.13-14.78-1.13-14.78l-30.22-19.93c-1.15-.65-2.31-1.28-3.47-1.89-6.31-2.74-27.72-11.26-51.33-11.91-9.98-.28-19.91,1.81-28.59,4.62-5.84,2.29-8.54,4.53-8.54,4.53Z"/>
    </g>
    <g>
      <path class="st7" d="M242.3,1009.7s36.69-27.17,88.36-13.43c51.66,13.74,94.21,94.5,179.26,35.1,33.12-23.13,62-29.97,85.03-27.17,42.31,5.15,67.35,49.88,50.73,89.12-26.96,63.65-117.26,151.06-214.6,126.2-164.19-41.93-103.19-176.92-188.77-209.82Z"/>
      <path class="st5" d="M383.37,1026.16s9.82,41.13-21.27,66.64c-14.21,11.66-36.2,15.23-55.89,15.68"/>
      <path class="st5" d="M439.74,1052.13s44.93,35.51,18.59,93.17c-26.34,57.66-90.68,47.47-90.68,47.47"/>
      <path class="st5" d="M509.92,1031.36s59.59,4.86,71.09,71.89c11.5,67.03-20.06,84.94-20.06,84.94"/>
    </g>
  </g>
  <g>
    <path class="st10" d="M679,1095.06s-3,44-5,99,37,74,74,21c30.01-42.99,40.29-99.79,41.49-138.93.91-29.53-20.88-55.32-50.27-58.31-28.03-2.85-57.42,15.36-60.23,77.24Z"/>
    <path class="st9" d="M674,1194.06s17-16,45-11,30.12,30.37,30.12,30.37c0,0-24.5,40.94-55.81,30.28-21.31-13.65-19.31-49.65-19.31-49.65Z"/>
    <path class="st21" d="M709.95,1046.14c8.65-6.99,23.48-4.24,30.51,4.38,9.39,11.52,10.06,61.22-17.52,107.08-3.68,6.12-8.97,12.67-16.11,12.56-12.6-.18-14.92-15.88-15.64-24.56-1.76-21.43-2.2-82.55,18.76-99.46Z"/>
  </g>
  <g>
    <path class="st21" d="M874.93,881.49s-34.16,42.25-76.27,56.21c0,0,6.58-.59,16.04,8.93,9.45,9.52,67.26,65.99,101.91,48.1,34.65-17.89-4.65-56.76-4.65-56.76l-40.28-48.06,3.25-8.42Z"/>
    <path class="st7" d="M867.46,890.26s38.69,38.11,54.52,59.88c15.83,21.78,5.96,73.38-58.1,37.87-34.69-19.23-58.31-50.4-58.31-50.4"/>
    <g>
      <path class="st0" d="M718.97,849.89c-10.67-34.33,17.09-69.02,52.83-65.15,8,.87,16.51,3.54,25,9.11,33.94,22.3,92.67,65.65,92.67,65.65,0,0-26.9,56.39-99.39,81.39,0,0-56.67-44.56-71.11-91Z"/>
      <path class="st16" d="M714.11,851.4c-12.42-40.05,22.91-79.75,64.23-70.53,7.92,1.66,15.48,5.09,22.12,9.63,6.07,4.1,12.73,8.5,18.7,12.65,24.52,17.36,49.4,34.09,73.97,51.38,2.94,2.14,3.19,5.8,1.35,8.72,0,0-.52.99-.52.99-13.49,24.19-34.64,43.23-57.26,58.69-13.96,9.41-29.25,16.77-45.1,22.36-1.55.55-3.21.22-4.41-.74-7.84-6.28-15.05-12.83-22.2-19.79-21.15-20.96-41.35-44.63-50.88-73.38h0ZM723.83,848.38c10.08,30.69,34.88,57.84,58.3,79.51,3.54,3.2,7.22,6.41,10.83,9.33,0,0-4.41-.74-4.41-.74,30.24-10.38,58.04-28.56,77.95-53.73,6.33-7.95,12.19-16.25,17.02-25.18,0,0,.38-.73.38-.73l1.9,7.62c-23.73-18.18-47.39-36.55-72.15-53.35-5.9-4.14-12.47-8.57-18.51-12.56-5.74-3.89-12.07-6.76-18.84-8.16-33.81-7.55-62.85,25.23-52.49,57.99h0Z"/>
    </g>
    <path class="st9" d="M854.43,982.3s-3.2-26.36,10.68-40.54c13.88-14.18,34.14-18.53,34.14-18.53,0,0,33.78,27.01,27.52,48.6s-14.39,31.55-45.12,24.4-27.23-13.93-27.23-13.93Z"/>
  </g>
  <g>
    <path class="st10" d="M568,1095.06s3,44,5,99c2,55-37,74-74,21-30.01-42.99-40.29-99.79-41.49-138.93-.91-29.53,20.88-55.32,50.27-58.31,28.03-2.85,57.42,15.36,60.23,77.24Z"/>
    <path class="st9" d="M573,1194.06s-17-16-45-11-30.12,30.37-30.12,30.37c0,0,24.5,40.94,55.81,30.28,21.31-13.65,19.31-49.65,19.31-49.65Z"/>
    <path class="st21" d="M537.05,1046.14c-8.65-6.99-23.48-4.24-30.51,4.38-9.39,11.52-10.06,61.22,17.52,107.08,3.68,6.12,8.97,12.67,16.11,12.56,12.6-.18,14.92-15.88,15.64-24.56,1.76-21.43,2.2-82.55-18.76-99.46Z"/>
  </g>
  <g>
    <path class="st21" d="M372.07,881.49s34.16,42.25,76.27,56.21c0,0-6.58-.59-16.04,8.93-9.45,9.52-67.26,65.99-101.91,48.1-34.65-17.89,4.65-56.76,4.65-56.76l40.28-48.06-3.25-8.42Z"/>
    <path class="st7" d="M379.54,890.26s-38.69,38.11-54.52,59.88c-15.83,21.78-5.96,73.38,58.1,37.87,34.69-19.23,58.31-50.4,58.31-50.4"/>
    <g>
      <path class="st0" d="M528.03,849.89c10.67-34.33-17.09-69.02-52.83-65.15-8,.87-16.51,3.54-25,9.11-33.94,22.3-92.67,65.65-92.67,65.65,0,0,26.9,56.39,99.39,81.39,0,0,56.67-44.56,71.11-91Z"/>
      <path class="st16" d="M523.17,848.38c10.35-32.75-18.66-65.54-52.49-57.99-6.76,1.4-13.1,4.27-18.84,8.16-6.05,4.02-12.59,8.42-18.51,12.56-24.76,16.79-48.42,35.17-72.15,53.35,0,0,1.9-7.62,1.9-7.62,0,0,.38.73.38.73,4.83,8.92,10.69,17.23,17.02,25.18,19.91,25.18,47.72,43.36,77.95,53.73,0,0-4.41.74-4.41.74,3.62-2.92,7.29-6.13,10.83-9.33,23.42-21.67,48.21-48.82,58.3-79.51h0ZM532.89,851.4c-9.53,28.75-29.73,52.41-50.88,73.38-7.15,6.96-14.37,13.51-22.2,19.79-1.29,1.03-2.96,1.25-4.41.74-15.85-5.59-31.14-12.95-45.1-22.36-22.62-15.46-43.77-34.51-57.26-58.69,0,0-.52-.99-.52-.99-1.87-2.99-1.56-6.62,1.35-8.72,24.57-17.29,49.45-34.02,73.97-51.38,5.96-4.14,12.64-8.58,18.7-12.65,6.64-4.54,14.2-7.97,22.12-9.63,41.3-9.22,76.66,30.47,64.23,70.53h0Z"/>
    </g>
    <path class="st9" d="M392.57,982.3s3.2-26.36-10.68-40.54c-13.88-14.18-34.14-18.53-34.14-18.53,0,0-33.78,27.01-27.52,48.6,6.26,21.58,14.39,31.55,45.12,24.4s27.23-13.93,27.23-13.93Z"/>
  </g>
  <path class="st0" d="M623.43,1122.63c-101.93,4.07-211.56-51.57-211.56-51.57,0,0,28.49-115.5,51.06-212.41,22.57-96.91,153.43-100.61,153.43-100.61l7.07-.2c3.53.1,7.07.2,7.07.2,0,0,130.86,3.7,153.43,100.61,22.57,96.91,51.06,212.41,51.06,212.41,0,0-109.63,55.64-211.56,51.57"/>
  <path class="st12" d="M834.32,1065.16s-53.7-216.85-54.82-216.6c-1.14.25,40.55,206.78,42.39,215.05-11.99,6.86-24.8,12.51-37.56,17.72-3,1.15-9.33,3.53-12.3,4.67-3.05,1.06-9.43,3.23-12.46,4.28-3.33,1.15-9.27,2.83-12.59,3.88-12.05,3.68-26.08,6.88-38.38,9.56-4.22.83-15.17,2.75-19.47,3.56-4.37.6-15.35,2.15-19.61,2.73-6.09.73-16.86,1.57-23,2.21-5.96.29-16.91.81-22.98,1.11-4.28-.16-15.59-.6-19.71-.76-1.65-.03-4.93-.23-6.58-.4-7.55-.65-18.91-1.44-26.3-2.56,0,0-13.11-1.69-13.11-1.69-4.36-.74-15.39-2.65-19.54-3.38-5.94-1.34-13.51-2.74-19.38-4.19-16.8-4.07-34.44-9.17-50.59-15.24-15.53-5.71-31.06-12.35-45.48-20.5,1.27-5.5,45.68-215.79,44.64-216.05-1.06-.26-52.74,217.08-52.74,217.08-.38,1.55.24,3.24,1.66,4.13,2.04,1.28,3.95,2.41,5.94,3.53,9.82,5.56,20,10.48,30.36,14.91,16.37,7.11,33.73,13.09,50.87,18.02,4.87,1.25,14.67,4.12,19.59,5.09,3.24.75,9.94,2.26,13.16,3,4.26.86,15.6,2.84,19.91,3.68,7.77,1.03,19.02,2.89,26.76,3.53,2.58.23,14.43,1.41,16.8,1.61,6.12.32,17.5.87,23.71,1.18,4.45-.18,16.04-.64,20.34-.82,1.69-.04,5.07-.25,6.75-.43,7.73-.72,19.31-1.47,26.88-2.67,0,0,13.4-1.77,13.4-1.77,4.49-.78,15.69-2.73,19.98-3.5,6.09-1.38,13.8-2.87,19.8-4.39,7.49-1.88,18.84-4.9,26.08-7.21,1.78-.53,4.75-1.4,6.47-2,17.02-5.59,34.26-12.26,50.32-20.19,6.25-3.05,12.35-6.25,18.3-9.91,2.03-1.31,3.1-3.82,2.46-6.29Z"/>
  <path class="st16" d="M467.59,848.56l-51.74,223.42s-1.72-4.26-1.72-4.26c15.53,9.05,32.42,16.28,49.3,22.49,16.66,6.27,34.85,11.52,52.18,15.72,6.05,1.49,13.86,2.93,19.99,4.32,4.28.75,15.65,2.72,20.15,3.48,0,0,13.52,1.75,13.52,1.75,7.62,1.15,19.34,1.96,27.13,2.64,1.7.18,5.08.38,6.78.42,4.25.16,15.92.61,20.32.78,6.26-.31,17.55-.85,23.7-1.14,6.34-.66,17.44-1.53,23.72-2.28,4.4-.6,15.72-2.19,20.23-2.81,4.44-.84,15.73-2.82,20.08-3.67,12.68-2.76,27.15-6.07,39.58-9.86,3.43-1.08,9.55-2.82,12.99-4,3.12-1.08,9.71-3.32,12.85-4.41,3.07-1.18,9.59-3.64,12.69-4.82,14.46-5.91,28.99-12.34,42.37-20.39,0,0-2.64,6.55-2.64,6.55,0,0-49.81-223.89-49.81-223.89-.26-1.17.48-2.34,1.65-2.6,1.15-.26,2.29.45,2.58,1.58,0,0,57.4,222.06,57.4,222.06.66,2.55-.44,5.14-2.54,6.48-6.14,3.77-12.43,7.07-18.88,10.22-16.56,8.18-34.34,15.06-51.9,20.82-1.77.62-4.83,1.51-6.67,2.07-7.47,2.38-19.17,5.5-26.9,7.44-6.19,1.57-14.15,3.1-20.43,4.53-4.42.79-15.97,2.81-20.6,3.61,0,0-13.82,1.82-13.82,1.82-7.81,1.24-19.76,2.01-27.73,2.76-1.74.19-5.22.41-6.97.44-4.43.18-16.39.66-20.98.84-6.41-.32-18.15-.89-24.46-1.22-2.44-.2-14.67-1.43-17.33-1.66-7.98-.66-19.59-2.58-27.6-3.64-4.45-.87-16.15-2.92-20.54-3.8-3.33-.76-10.24-2.32-13.58-3.09-5.08-1-15.19-3.96-20.21-5.25-17.68-5.08-35.58-11.25-52.47-18.58-10.7-4.58-21.19-9.65-31.32-15.38-2.05-1.16-4.02-2.32-6.12-3.64-1.47-.92-2.11-2.66-1.72-4.26,0,0,55.47-222.53,55.47-222.53.27-1.09,1.38-1.76,2.47-1.48,1.08.27,1.74,1.36,1.49,2.44h0Z"/>
  <g>
    <ellipse class="st11" cx="623.5" cy="831.06" rx="81.5" ry="53"/>
    <ellipse class="st17" cx="623.5" cy="827.06" rx="77" ry="46.5"/>
  </g>
  <path class="st16" d="M673.47,918.16c10.81,0,15.38,10.48,14.82,16.16-.33,3.57-3.46,40.02-3.46,40.02h-53.84l2.12-25.75h-13.6l-5.91,68.89h13.6l2.34-27.75h53.84s-2.9,35.89-3.57,41.8c-1,9.92-5.57,16.39-17.39,16.39h-89.17c-10.03,0-15.49-9.25-14.71-17.39.45-5.13,7.91-93.3,8.25-97.53.67-7.25,5.91-14.82,16.83-14.82,5.91,0,86.5,0,89.84,0ZM673.47,902.56h-89.73c-9.25,0-17.28,3.23-23.3,9.36-5.13,5.13-8.36,12.15-9.03,19.62-.22,2.12-8.03,94.97-8.25,97.53-.89,8.92,2.23,18.28,8.14,24.75,5.68,6.24,13.49,9.7,22.07,9.7h89.17c18.73,0,30.99-11.37,32.99-30.43.67-6.02,8.03-93.97,8.36-97.53.67-8.14-2.56-17.17-8.36-23.52-5.8-6.13-13.6-9.47-22.07-9.47Z"/>
  <g>
    <path class="st21" d="M185.57,591.48s44.4-18.2,77.17-57.13c32.78-38.94,76.19-110.3,76.19-110.3,0,0-19.19-35.74-30.19-88.25-11-52.51-2.29-108.65-2.29-108.65,0,0,4.86-44.15,40.83-50.09,35.97-5.95,103.53,45.24,103.53,45.24,0,0,41.32,33.54,55.74,63.36l58.38-14.85s14.15-53.74,37.29-63.39c23.14-9.65,29,9.71,18.85,33.9,0,0,27.09-34.04,61.23-37.13,34.14-3.09,33.21,18.55,26.45,29.94-6.75,11.39-31.03,36.88-31.03,36.88l62.04,12.28s57.89-79.68,117.24-97.03c59.35-17.36,67.74-1.23,77.43,20.69,9.69,21.92,10.35,63.38,7.24,105.96-3.11,42.57-33.12,112.08-33.12,112.08l41.22,63.73s33.44,53.83,66.09,75.25c32.65,21.42,45.42,27.52,45.42,27.52,0,0-30.78,49.15-80.08,97.04-49.3,47.89-120.49,102.66-204.84,132.47-84.35,29.81-184.99,39.42-287.38,6.29-102.39-33.12-152.37-77.8-195.11-112.51-47.22-38.34-108.3-123.3-108.3-123.3Z"/>
    <path class="st13" d="M468.94,302.17s-25.54-71.08-81.07-76.63c-55.53-5.55-88.85,87.74-22.21,165.48,0,0,36.65-58.86,103.29-88.85Z"/>
    <path class="st13" d="M778.48,302.17s25.54-71.08,81.07-76.63c55.53-5.55,88.85,87.74,22.21,165.48,0,0-36.65-58.86-103.29-88.85Z"/>
    <ellipse class="st13" cx="623.71" cy="600.92" rx="108.84" ry="77.74"/>
    <path class="st13" d="M647.59,467.65s6.66-119.13,92.86-130.83c23.34-3.17,47.01,2.49,66.96,15.01,102.46,64.28,67.24,163.5,188.53,224.7,5.43,2.74,6.16,10.2,1.35,13.93-30.17,23.36-125.22,67.27-250.86,32.68-107.73-38.87-98.84-155.48-98.84-155.48Z"/>
    <path class="st13" d="M599.27,467.65s-6.66-119.13-92.86-130.83c-23.34-3.17-47.01,2.49-66.96,15.01-102.46,64.28-67.24,163.5-188.53,224.7-5.43,2.74-6.16,10.2-1.35,13.93,30.17,23.36,125.22,67.27,250.86,32.68,107.73-38.87,98.84-155.48,98.84-155.48Z"/>
    <path class="st19" d="M623.15,618.37s3.33,8.09,14.44,9.2c11.11,1.11,27.77-14.44,48.87-3.33,21.1,11.11,14.44,41.09,12.22,48.87-2.22,7.77-15.55,37.76-71.08,39.98-55.53,2.22-74.41-26.65-81.07-42.2-6.66-15.55-2.39-40.36,16.57-49.06,18.97-8.69,44.51,18.43,60.06-3.46Z"/>
    <path class="st20" d="M668.69,703.1s-6.12-29.99-44.15-34.43c-38.03-4.44-45.88,34.43-45.88,34.43,0,0,40.06,22.21,90.03,0Z"/>
    <path class="st2" d="M647.87,626.19s6.38,21.37,17.49,20.26c11.11-1.11,12.49-25.58,12.49-25.58,0,0-10.81-4.95-29.97,5.32Z"/>
    <path class="st2" d="M599.45,627.21s-8.51,21.47-19.61,18.14c-11.11-3.33-12.25-24.92-12.25-24.92,0,0,15.93-3.58,31.86,6.79Z"/>
    <path class="st16" d="M804.56,314.83s.73-35.99,15.17-55.98c14.44-19.99,23.32-6.66,23.32-6.66l-.89,40.52s15.33-30.52,39.76-30.52c0,0,13.48,3.87,5.07,19.15-8.4,15.28-29.51,35.27-29.51,35.27,0,0,24.43-10,34.43-2.22,10,7.77-9.29,35.4-45.74,33.8l-41.62-33.35Z"/>
    <path class="st16" d="M444.35,313.27l-44.97,34.91s-43.88-7.15-44.99-26.03c-1.11-18.88,34.43-6.66,34.43-6.66,0,0-44.42-37.76-26.65-52.2,0,0,21.1-8.88,43.31,31.1,0,0-7.77-36.65,1.11-45.53,8.88-8.88,19.31,2.21,24.09,19.43,4.78,17.22,13.67,44.98,13.67,44.98Z"/>
    <path class="st14" d="M568.08,793.16c-241.23-33.49-382.09-201.68-382.09-201.68,48.87,80.52,139.94,156.04,232.74,207.21,91.02,50.18,200.77,49.45,204.98,49.4,4.2.05,113.96.78,204.98-49.4,92.81-51.17,183.88-126.69,232.74-207.21,0,0-140.86,168.19-382.09,201.68-36.9,5.12-74.36,5.12-111.25,0Z"/>
    <g>
      <g>
        <path class="st14" d="M925.57,192.97s12.92,60.33-6.86,104.05c.5,28.87-10.12,62.69-36.94,93.99,0,0-8.92-14.32-25.95-32.43,0,0,0,0,0,0l52.74,66.39s27.3-51.97,33.66-116.82c6.35-64.85-5.21-102.21-16.64-115.18Z"/>
        <path class="st17" d="M918.71,297.03c-3.2,7.07-7.25,13.7-12.35,19.58-14.98,17.25-33.67,31.35-50.54,41.99,17.03,18.11,25.95,32.43,25.95,32.43,26.83-31.3,37.45-65.11,36.94-93.99Z"/>
      </g>
      <g>
        <path class="st14" d="M321.84,192.97s-12.92,60.33,6.86,104.05c-.5,28.87,10.12,62.69,36.94,93.99,0,0,8.92-14.32,25.95-32.43,0,0,0,0,0,0l-52.74,66.39s-27.3-51.97-33.66-116.82c-6.35-64.85,5.21-102.21,16.64-115.18Z"/>
        <path class="st17" d="M328.7,297.03c3.2,7.07,7.25,13.7,12.35,19.58,14.98,17.25,33.67,31.35,50.54,41.99-17.03,18.11-25.95,32.43-25.95,32.43-26.83-31.3-37.45-65.11-36.94-93.99Z"/>
      </g>
    </g>
    <path class="st22" d="M604.27,268.29s-115.5,17.49-178.21,71.66c-59.06,46.95-141.4,173.79-141.4,173.79,0,0,42.67-94.6,110.38-160.02,67.72-65.42,158.34-85.85,209.23-85.43Z"/>
    <path class="st22" d="M580.73,233.27s20.17-23.29,29.71-21.09,11.19,13.21,9.9,26.96c0,0,7.45-18.45,3.08-27.11-4.37-8.66-21.79-17.64-42.7,21.24Z"/>
    <path class="st22" d="M630.59,231.78c-.92.95,41.66-22.35,61.65-15.93,19.99,6.42-9.35,46.22-9.35,46.22,0,0,36.08-24.73,28.03-48.22-8.04-23.49-61.84-1.17-80.33,17.93Z"/>
    <path class="st22" d="M668.37,269.86s92.95,14.58,165.34,81.59c72.38,67,97.02,142.07,152.87,186.13,0,0-30.11-39.16-64.1-89.54-33.99-50.37-66.03-105.72-132.54-139.06s-121.56-39.12-121.56-39.12Z"/>
    <g>
      <path class="st22" d="M738.76,285.35s51.08-76.22,117.84-97.74c0,0,30.81-14.18,52.58-4.65,0,0-26.59-12.72-85.8,30.57-59.21,43.28-71.68,76.44-71.68,76.44l-12.94-4.62Z"/>
      <path class="st22" d="M507.54,285.35s-51.08-76.22-117.84-97.74c0,0-30.81-14.18-52.58-4.65,0,0,26.59-12.72,85.8,30.57,59.21,43.28,71.68,76.44,71.68,76.44l12.94-4.62Z"/>
    </g>
    <path class="st24" d="M623.15,668.67s-38.57,3-41.14,33.44c0,0,16.12-25.28,41.14-25.28s41.14,25.28,41.14,25.28c-2.57-30.44-41.14-33.44-41.14-33.44Z"/>
    <path class="st7" d="M740.3,284.45c28.45-45.69,70.28-78.86,119.96-99.58,16.63-6.94,36.39-11.94,52.04-3.01,15.71,8.97,25.07,26.36,27.93,44.23,10.82,67.56-2.08,137.22-31.68,198.89"/>
    <path class="st16" d="M802.41,314.68c.77-11.43,2.71-22.78,5.91-33.79,1.58-5.51,3.44-10.93,5.63-16.23,3.8-9.64,9.64-22.16,22.22-20.03,8.92,1.92,9.8,12.49,9.41,19.85-.27,11.45-1.93,22.85-4.98,33.83,0,0-2.13-.87-2.13-.87,5.26-9.77,11.1-19.56,19.57-27.04,6.38-5.64,19.69-14.09,28.22-8.93,4.23,2.68,5.82,8.12,5.25,12.79-.82,6.02-4.57,10.77-8.04,15.31-8.48,10.92-17.61,21.78-29.36,29.33,0,0-.03.02-.03.02l-.98-1.65c7.82-4.38,16.68-6.42,25.56-7.28,10.9-1.33,21.57,5.96,16.51,17.74-2.04,4.46-5.83,7.52-9.6,10.26-7.33,5.29-15.79,8.95-24.6,10.89-4.42.93-8.93,1.44-13.45,1.46-1.19,0-2.17-.96-2.17-2.15,0-1.18.93-2.14,2.1-2.17,8.44-.22,16.82-2.07,24.56-5.45,3.85-1.71,7.56-3.76,11.02-6.17,3.47-2.41,6.75-5.06,8.34-8.42,1.57-3.29,1.37-7.14-1.52-9.6-2.73-2.5-6.84-3.15-10.99-2.94-8.5.42-17.09,1.97-24.89,5.54-1.04.47-1.89-.98-.98-1.65,4.36-3.27,8.4-6.92,12.11-10.9,5.64-5.91,10.61-12.48,15.49-19.04,3.08-4.13,6.48-8.5,7.12-13.58.35-3.39-.72-7.13-3.57-9.03-3.1-1.88-6.75-.96-10.22.27-10.05,3.74-18.08,11.37-24.38,19.93-3.27,4.32-6.12,9-9.08,13.63-.35.54-1.07.7-1.62.35-.42-.27-.61-.77-.51-1.23,2.64-13.53,4.36-27.71,2.87-41.38-1.14-7.9-8.16-9.76-14.05-5.27-4.5,3.71-6.51,9.52-8.95,15.29-6.23,15.51-10.11,31.94-11.5,48.6-.26,2.8-4.45,2.53-4.31-.32h0Z"/>
    <path class="st16" d="M647.59,485.42s6.66-119.13,92.86-130.83c23.34-3.17,47.01,2.49,66.96,15.01,102.46,64.28,67.24,145.73,188.53,206.93,5.43,2.74,6.16,10.2,1.35,13.93-30.17,23.36-125.22,85.04-250.86,50.45-107.73-38.87-98.84-155.48-98.84-155.48Z"/>
    <ellipse class="st3" cx="758.09" cy="513.74" rx="87.74" ry="91.07"/>
    <path class="st16" d="M604.25,269.63c-44.98,5.31-89.99,15.74-130.89,35.55-25.24,12.28-48.92,28.45-69.08,47.99-10.08,9.6-19.51,20.77-28.37,31.5-16.12,19.95-30.9,40.98-44.75,62.59-30.88,48.6-61.59,101.33-112.28,132.31-9.94,6.34-20.33,11.9-30.95,16.88,0,0,2.35-7.82,2.35-7.82,20.56,31.99,45.38,61.31,71.87,88.54,210.3,214.59,494.56,221.63,710.97,11.55,23.39-22.78,45.33-47.34,64.94-73.44,6.45-8.65,12.81-17.54,18.52-26.65,0,0,2.35,7.82,2.35,7.82-10.61-5-20.99-10.57-30.92-16.92-29.93-18.77-54.62-45.52-74.39-74.31-27.71-40.47-51.28-82.92-82.44-120.74-10.67-12.96-21.97-26.15-34.55-37.3-35.61-32.48-80.32-53.6-126.78-65.5-22.03-5.68-44.56-9.95-67.25-12.06-.75-.03-1.32-.7-1.25-1.44.06-.65.58-1.15,1.21-1.21,5.85-.5,11.65-.58,17.47-.45,76.36,2.35,152.93,35.6,204.58,92.34,7,7.81,14.62,16.72,21.16,24.95,29.05,35.82,51.96,76.65,77.82,114.45,25.48,37.85,58.51,68.68,100.04,88.25,2.77,1.29,3.97,4.65,2.59,7.39-19.47,30.68-42.96,58.63-67.86,85-36.44,38.05-77.38,71.91-122.28,99.62-211.04,131.02-444.32,83.14-615.94-87.76-27.47-27.43-52.9-57.13-74.67-89.31-1.56-2.35-3.07-4.62-4.61-7.13-1.58-2.57-.78-5.94,1.79-7.52,20.44-10.06,39.73-22.3,56.54-37.47,42.79-38.43,67.46-91.53,100.76-137.79,11.63-16.53,24.33-32.82,37.74-47.98,9.54-10.99,20.25-21.56,31.42-30.87,45.31-37.1,102.03-60.13,160.26-65.53,11.62-.96,23.26-1.32,34.93-.21.74.07,1.28.73,1.21,1.47-.06.67-.61,1.18-1.26,1.22h0Z"/>
    <path class="st7" d="M506.56,284.45c-28.45-45.69-70.28-78.86-119.96-99.58-16.63-6.94-36.39-11.94-52.04-3.01-15.71,8.97-25.07,26.36-27.93,44.23-10.82,67.56,2.08,137.22,31.68,198.89"/>
    <path class="st16" d="M440.14,314.99c-1.31-16.67-5.13-33.14-11.33-48.67-3.28-8.01-7.17-18.93-17.27-17.7-6.73,1.56-6.58,10.04-6.64,15.82-.07,11.19,1.12,22.38,3.49,33.33.26,1.11-1.29,1.74-1.88.78-3-4.62-5.87-9.29-9.17-13.59-3.22-4.35-6.83-8.37-10.92-11.79-7.57-6.61-27.62-17.39-27.15.64.67,5.04,4.04,9.39,7.09,13.51,4.87,6.57,9.84,13.13,15.46,19.05,3.7,3.99,7.74,7.65,12.09,10.94.96.72.02,2.27-1.06,1.75-7.78-3.57-16.36-5.12-24.86-5.55-7.74-.7-16.44,3.66-12.46,12.48,1.58,3.34,4.84,6,8.31,8.4,3.46,2.4,7.16,4.46,11.01,6.17,7.73,3.38,16.11,5.24,24.54,5.48,2.8.12,2.76,4.27-.06,4.32-13.55-.03-27.07-4.41-38.07-12.32-3.78-2.74-7.57-5.8-9.62-10.27-5.09-11.75,5.65-19.18,16.56-17.8,8.89.86,17.75,2.89,25.58,7.27,0,0-1.05,1.76-1.05,1.76-11.81-7.52-20.95-18.4-29.46-29.32-3.5-4.54-7.27-9.31-8.07-15.37-.56-4.72,1.07-10.18,5.33-12.89,8.64-5.23,21.87,3.29,28.29,9,8.44,7.51,14.24,17.31,19.44,27.13,0,0-1.88.76-1.88.76-2.97-10.99-4.62-22.37-4.88-33.8-.1-5.81-.22-13.03,4.64-17.32,5.26-4.58,13.49-2.52,17.92,2.21,4.27,4.38,6.34,9.96,8.67,15.36,2.19,5.29,4.08,10.7,5.67,16.2,3.22,10.99,5.22,22.33,6.03,33.75.12,2.84-4.02,3.16-4.31.32h0Z"/>
    <path class="st16" d="M599.27,485.42s-6.66-119.13-92.86-130.83c-23.34-3.17-47.01,2.49-66.96,15.01-102.46,64.28-67.24,145.73-188.53,206.93-5.43,2.74-6.16,10.2-1.35,13.93,30.17,23.36,125.22,85.04,250.86,50.45,107.73-38.87,98.84-155.48,98.84-155.48Z"/>
    <ellipse class="st3" cx="488.77" cy="513.74" rx="87.74" ry="91.07"/>
    <path class="st16" d="M561.18,269.92c3.34-17.18,10.52-33.55,20.43-47.97,5.44-7.47,10.61-15.11,18.81-20.1,8.15-5.04,20.15-4.67,26.51,3.32,7.99,9.68,1.16,31.73-4.83,41.26,0,0-4.95-2.7-4.95-2.7,9.99-17.72,26.96-31.55,46.02-38.91,10.51-3.76,21.05-6.8,32.47-5.82,9.3.79,18.99,7.33,20.86,17.08,2.06,8.88-1.42,17.81-6.03,24.87-8.37,13.04-19.67,24.25-32.86,32.33-3.5,2.02-6.77-2.77-3.67-5.29,5.7-4.47,10.98-9.4,15.75-14.77,4.7-5.35,8.97-11.17,12.58-17.27,1.75-3.01,3.18-6.01,3.97-8.98,2.52-9.44-2.17-16.27-11.82-17.21-4.35-.59-10.32.48-14.91,1.33-4.27.9-8.58,2.07-12.7,3.54-17.65,6.26-33.25,17.55-44.96,32.23-2.1,3.44-6.89.8-4.95-2.7,1.39-5.29,2.42-10.55,2.91-15.82.31-4.4.87-10.49-.43-14.36-1.16-3.24-4.45-4.2-7.78-4.01-7.02.75-11.82,6.66-16.37,11.78-5.27,6.17-9.93,12.84-13.92,19.92-5.33,9.48-9.56,19.58-12.6,30.05-1.42,4.65-8.34,3.07-7.52-1.8h0Z"/>
    <path class="st4" d="M623.15,613.14s0,14.99-16.66,13.88c-8.86-.59-14.03-3.52-20.33-5.59-16.49-5.43-34.22,4.06-39.16,20.7-6.88,23.14.92,57.03,50.71,68.12,16.92,3.77,34.52,3.77,51.44,0,49.79-11.09,57.59-44.98,50.7-68.12-4.95-16.64-22.68-26.13-39.16-20.7-6.3,2.08-11.47,5-20.33,5.59-16.66,1.11-16.66-13.88-16.66-13.88"/>
    <path class="st8" d="M568.73,575.7c0,18.88,31.65,37.43,54.98,37.43s54.98-18.56,54.98-37.43-24.61-33.09-54.98-33.09-54.98,14.22-54.98,33.09Z"/>
    <path class="st4" d="M578.49,703.91c3.58-20,22.33-35.24,44.92-35.24s41.48,15.36,44.96,35.48"/>
    <g>
      <path class="st4" d="M647.87,626.19c1.64,5.83,4.59,11.28,8.57,15.83,2.16,2.47,4.99,4.82,8.27,4.68,3.31-.14,5.96-2.8,7.8-5.56,3.76-5.65,5.65-12.53,5.29-19.31"/>
      <path class="st4" d="M598.99,626.19c-1.64,5.83-4.59,11.28-8.57,15.83-2.16,2.47-4.99,4.82-8.27,4.68-3.31-.14-5.96-2.8-7.8-5.56-3.76-5.65-5.65-12.53-5.29-19.31"/>
    </g>
    <ellipse class="st18" cx="623.71" cy="569.63" rx="26.63" ry="15.5"/>
    <g>
      <g>
        <ellipse cx="524.47" cy="513.74" rx="16.34" ry="23.6"/>
        <circle class="st2" cx="529.92" cy="510.11" r="8.17"/>
      </g>
      <g>
        <ellipse cx="722.95" cy="513.74" rx="16.34" ry="23.6"/>
        <circle class="st2" cx="728.39" cy="510.11" r="8.17"/>
      </g>
    </g>
  </g>
</svg>