<svg width="854" height="296" viewBox="0 0 854 296" fill="none" xmlns="http://www.w3.org/2000/svg">
<g clip-path="url(#clip0_455_30)">
<path d="M712.214 7.08259C717.266 7.08259 719.401 11.838 719.141 14.4181C718.984 16.037 717.526 32.5799 717.526 32.5799H692.37L693.359 20.8936H687.005L684.245 52.1582H690.599L691.693 39.5613H716.849C716.849 39.5613 715.495 55.8513 715.182 58.5325C714.713 63.035 712.578 65.9692 707.057 65.9692C704.141 65.9692 667.578 65.9692 665.391 65.9692C660.703 65.9692 658.151 61.7703 658.516 58.0772C658.724 55.7501 662.213 15.7335 662.37 13.811C662.682 10.5227 665.13 7.08259 670.234 7.08259C672.995 7.08259 710.651 7.08259 712.214 7.08259ZM712.214 0H670.286C665.963 0 662.214 1.46711 659.401 4.24956C657.005 6.57669 655.495 9.76385 655.182 13.1534C655.078 14.1146 651.432 56.256 651.328 57.4195C650.911 61.4667 652.37 65.7163 655.13 68.6505C657.786 71.4835 661.432 73.0518 665.443 73.0518H707.109C715.859 73.0518 721.588 67.8917 722.526 59.2408C722.838 56.5089 726.276 16.5935 726.432 14.9746C726.745 11.2816 725.234 7.18377 722.526 4.30014C719.818 1.5177 716.172 0 712.214 0Z" fill="#43CD72"/>
<path d="M487.67 46.5195C515.179 46.5195 527.104 62.3746 527.104 85.8183C527.104 109.262 515.179 124.982 487.67 124.982C476.152 124.982 467.479 122.813 461.381 118.612V148.967H436.988V49.6363H457.722L457.993 57.9026C464.497 50.9915 474.119 46.5195 487.67 46.5195ZM481.301 105.739C494.175 105.739 502.712 100.725 502.712 85.8183C502.712 70.9119 494.175 65.8979 481.301 65.8979C466.666 65.8979 459.348 73.6221 459.348 85.8183C459.348 98.0145 466.666 105.739 481.301 105.739Z" fill="white"/>
<path d="M397.333 49.6367H423.487L400.992 116.038C390.422 147.342 385.544 149.103 358.441 149.103H341.909V130.945H359.119C371.044 130.945 373.754 128.505 375.787 122.001H355.731L329.441 49.6367H356.409L374.838 108.043H379.717L397.333 49.6367Z" fill="white"/>
<path d="M277.591 124.44C250.082 124.44 232.059 113.87 232.059 84.5988V74.1643C232.059 32.1552 250.759 25.244 282.063 25.244H283.825C293.039 25.244 298.189 24.702 298.189 21.7207H321.497C321.497 37.4402 312.147 43.5383 286.128 43.5383H281.25C259.297 43.5383 253.741 48.4168 252.657 64.9494H253.334C258.077 55.599 266.208 50.585 283.012 50.585C309.03 50.585 323.53 61.9681 323.53 86.9025C323.53 112.921 306.32 124.44 277.591 124.44ZM277.455 105.332C289.245 105.332 298.324 100.454 298.324 86.767C298.324 74.1643 290.6 68.7437 277.455 68.7437C264.175 68.7437 256.586 74.1643 256.586 86.767C256.586 100.454 265.666 105.332 277.455 105.332Z" fill="white"/>
<path d="M125.336 122.001V49.6367H149.186V110.211H151.354C158.943 88.2579 164.228 71.7253 173.172 49.6367H213.419V122.001H189.569V61.4264H187.401C179.677 83.3795 174.121 99.9121 165.583 122.001H125.336Z" fill="white"/>
<path d="M55.5604 123.897C20.598 123.897 0 108.99 0 74.8409C0 40.8271 20.598 25.7852 55.5604 25.7852C85.6443 25.7852 104.616 36.7617 109.63 61.0186L81.3078 60.883C77.92 52.4812 70.3313 47.6028 55.5604 47.6028C33.8783 47.6028 27.7802 58.5793 27.7802 74.7054C27.7802 90.9669 33.8783 101.944 55.5604 101.944C70.4668 101.944 78.0555 96.523 81.4434 87.9857H109.766C105.023 112.785 85.9153 123.897 55.5604 123.897Z" fill="white"/>
<path d="M809.364 185.796C789.443 185.796 775.485 181.324 775.485 164.791H798.387C798.387 171.025 800.149 174.683 809.364 174.683C818.578 174.683 820.205 171.025 820.205 164.791H843.377C843.377 181.324 829.419 185.796 809.364 185.796ZM765.051 269.001V196.637H788.901V257.211H791.069C798.658 235.258 803.943 218.725 812.887 196.637H853.134V269.001H829.284V208.426H827.116C819.391 230.379 813.835 246.912 805.298 269.001H765.051Z" fill="white"/>
<path d="M701.84 272.117C672.705 272.117 655.359 260.056 655.359 232.818C655.359 205.58 672.705 193.52 701.84 193.52C730.976 193.52 748.321 205.58 748.321 232.818C748.321 260.056 730.976 272.117 701.84 272.117ZM701.84 252.739C718.644 252.739 723.929 245.421 723.929 232.818C723.929 220.08 718.644 212.898 701.84 212.898C685.037 212.898 679.752 220.08 679.752 232.818C679.752 245.421 685.037 252.739 701.84 252.739Z" fill="white"/>
<path d="M631.768 230.786C638.679 232.412 644.37 239.052 644.37 247.454C644.37 262.632 635.155 269.001 616.184 269.001H564.824V196.637H615.642C632.445 196.637 642.609 201.38 642.609 215.202C642.609 222.52 638.137 227.398 631.768 230.108V230.786ZM611.034 211.814H589.217V224.823H611.034C616.184 224.823 618.081 222.113 618.081 218.454C618.081 214.524 616.184 211.814 611.034 211.814ZM611.576 253.01C616.861 253.01 619.165 250.029 619.165 246.37C619.165 242.305 617.132 239.459 611.712 239.459H589.217V253.01H611.576Z" fill="white"/>
<path d="M501.614 272.117C472.478 272.117 455.133 260.056 455.133 232.818C455.133 205.58 472.478 193.52 501.614 193.52C530.749 193.52 548.095 205.58 548.095 232.818C548.095 260.056 530.749 272.117 501.614 272.117ZM501.614 252.739C518.417 252.739 523.702 245.421 523.702 232.818C523.702 220.08 518.417 212.898 501.614 212.898C484.81 212.898 479.525 220.08 479.525 232.818C479.525 245.421 484.81 252.739 501.614 252.739Z" fill="white"/>
<path d="M404.033 193.52C431.543 193.52 443.468 209.375 443.468 232.818C443.468 256.262 431.543 271.982 404.033 271.982C392.515 271.982 383.842 269.813 377.744 265.612V295.967H353.352V196.636H374.085L374.356 204.903C380.861 197.991 390.482 193.52 404.033 193.52ZM397.664 252.739C410.538 252.739 419.075 247.725 419.075 232.818C419.075 217.912 410.538 212.898 397.664 212.898C383.029 212.898 375.711 220.622 375.711 232.818C375.711 245.015 383.029 252.739 397.664 252.739Z" fill="white"/>
<path d="M271.77 295.696V271.71C244.125 271.439 228.812 258.565 228.812 232.682C228.812 206.664 244.261 194.196 271.77 193.383V167.094H294.807V193.383C322.317 194.196 337.765 206.664 337.765 232.682C337.765 258.565 322.723 271.439 294.807 271.71V295.696H271.77ZM272.041 253.958V211.407C256.051 211.813 252.121 219.673 252.121 232.682C252.121 246.369 256.051 253.551 272.041 253.958ZM294.536 253.958C310.527 253.551 314.457 246.369 314.457 232.682C314.457 219.673 310.527 211.813 294.536 211.407V253.958Z" fill="white"/>
<path d="M125.203 269.001V196.637H149.053V257.211H151.222C158.81 235.258 164.095 218.725 173.039 196.637H213.287V269.001H189.436V208.426H187.268C179.544 230.379 173.988 246.912 165.451 269.001H125.203Z" fill="white"/>
<path d="M96.7559 247.318H111.256C110.985 250.841 110.714 257.075 110.578 262.767L110.036 290.818H86.7279V269H6.09766V174.412H32.6582V247.318H70.1953V174.412H96.7559V247.318Z" fill="white"/>
</g>
<defs>
<clipPath id="clip0_455_30">
<rect width="853.134" height="295.967" fill="white"/>
</clipPath>
</defs>
</svg>
